<mxfile host="app.diagrams.net" modified="2022-09-19T03:20:02.252Z" agent="5.0 (Macintosh; Intel Mac OS X 10_15_7) AppleWebKit/537.36 (KHTML, like Gecko) Chrome/104.0.0.0 Safari/537.36" etag="wzOu4mpMl6fsJzWsmQoy" version="20.2.7" type="github">
  <diagram id="yWVn-rEfwjv9OvYtw4yc" name="第 1 页">
    <mxGraphModel dx="1426" dy="769" grid="1" gridSize="10" guides="1" tooltips="1" connect="1" arrows="1" fold="1" page="1" pageScale="1" pageWidth="827" pageHeight="1169" math="0" shadow="0">
      <root>
        <mxCell id="0" />
        <mxCell id="1" parent="0" />
        <mxCell id="pXWbJLQjwO5KQmK5qRDa-10" style="edgeStyle=orthogonalEdgeStyle;rounded=0;orthogonalLoop=1;jettySize=auto;html=1;entryX=0;entryY=0.5;entryDx=0;entryDy=0;curved=1;fillColor=#cce5ff;strokeColor=#7EA6E0;" edge="1" parent="1" source="pXWbJLQjwO5KQmK5qRDa-1" target="pXWbJLQjwO5KQmK5qRDa-6">
          <mxGeometry relative="1" as="geometry" />
        </mxCell>
        <mxCell id="pXWbJLQjwO5KQmK5qRDa-11" value="V1" style="edgeLabel;html=1;align=center;verticalAlign=middle;resizable=0;points=[];" vertex="1" connectable="0" parent="pXWbJLQjwO5KQmK5qRDa-10">
          <mxGeometry x="-0.1486" relative="1" as="geometry">
            <mxPoint y="1" as="offset" />
          </mxGeometry>
        </mxCell>
        <mxCell id="pXWbJLQjwO5KQmK5qRDa-12" style="edgeStyle=orthogonalEdgeStyle;curved=1;rounded=0;orthogonalLoop=1;jettySize=auto;html=1;entryX=0;entryY=0.5;entryDx=0;entryDy=0;strokeColor=#97D077;" edge="1" parent="1" source="pXWbJLQjwO5KQmK5qRDa-1" target="pXWbJLQjwO5KQmK5qRDa-7">
          <mxGeometry relative="1" as="geometry" />
        </mxCell>
        <mxCell id="pXWbJLQjwO5KQmK5qRDa-13" value="V2" style="edgeLabel;html=1;align=center;verticalAlign=middle;resizable=0;points=[];" vertex="1" connectable="0" parent="pXWbJLQjwO5KQmK5qRDa-12">
          <mxGeometry x="-0.1898" y="-2" relative="1" as="geometry">
            <mxPoint as="offset" />
          </mxGeometry>
        </mxCell>
        <mxCell id="pXWbJLQjwO5KQmK5qRDa-1" value="opagent" style="rounded=1;whiteSpace=wrap;html=1;fillColor=#ffcc99;strokeColor=default;sketch=1;glass=0;" vertex="1" parent="1">
          <mxGeometry x="110" y="160" width="90" height="40" as="geometry" />
        </mxCell>
        <mxCell id="pXWbJLQjwO5KQmK5qRDa-14" style="edgeStyle=orthogonalEdgeStyle;curved=1;rounded=0;orthogonalLoop=1;jettySize=auto;html=1;entryX=0;entryY=0.5;entryDx=0;entryDy=0;strokeColor=#97D077;" edge="1" parent="1" source="pXWbJLQjwO5KQmK5qRDa-2" target="pXWbJLQjwO5KQmK5qRDa-7">
          <mxGeometry relative="1" as="geometry" />
        </mxCell>
        <mxCell id="pXWbJLQjwO5KQmK5qRDa-2" value="cubelet" style="rounded=1;whiteSpace=wrap;html=1;fillColor=#ffcc99;strokeColor=default;sketch=1;glass=0;" vertex="1" parent="1">
          <mxGeometry x="110" y="230" width="90" height="40" as="geometry" />
        </mxCell>
        <mxCell id="pXWbJLQjwO5KQmK5qRDa-15" style="edgeStyle=orthogonalEdgeStyle;curved=1;rounded=0;orthogonalLoop=1;jettySize=auto;html=1;entryX=0;entryY=0.5;entryDx=0;entryDy=0;strokeColor=#97D077;" edge="1" parent="1" source="pXWbJLQjwO5KQmK5qRDa-3" target="pXWbJLQjwO5KQmK5qRDa-7">
          <mxGeometry relative="1" as="geometry" />
        </mxCell>
        <mxCell id="pXWbJLQjwO5KQmK5qRDa-3" value="proxy" style="rounded=1;whiteSpace=wrap;html=1;fillColor=#ffcc99;strokeColor=default;sketch=1;glass=0;" vertex="1" parent="1">
          <mxGeometry x="110" y="300" width="90" height="40" as="geometry" />
        </mxCell>
        <mxCell id="pXWbJLQjwO5KQmK5qRDa-16" style="edgeStyle=orthogonalEdgeStyle;curved=1;rounded=0;orthogonalLoop=1;jettySize=auto;html=1;strokeColor=#97D077;" edge="1" parent="1" source="pXWbJLQjwO5KQmK5qRDa-4">
          <mxGeometry relative="1" as="geometry">
            <mxPoint x="310" y="360" as="targetPoint" />
          </mxGeometry>
        </mxCell>
        <mxCell id="pXWbJLQjwO5KQmK5qRDa-17" style="edgeStyle=orthogonalEdgeStyle;curved=1;rounded=0;orthogonalLoop=1;jettySize=auto;html=1;entryX=0;entryY=0.5;entryDx=0;entryDy=0;strokeColor=#7EA6E0;" edge="1" parent="1" source="pXWbJLQjwO5KQmK5qRDa-4" target="pXWbJLQjwO5KQmK5qRDa-6">
          <mxGeometry relative="1" as="geometry" />
        </mxCell>
        <mxCell id="pXWbJLQjwO5KQmK5qRDa-4" value="shim" style="rounded=1;whiteSpace=wrap;html=1;fillColor=#ffcc99;strokeColor=default;sketch=1;glass=0;" vertex="1" parent="1">
          <mxGeometry x="110" y="370" width="90" height="40" as="geometry" />
        </mxCell>
        <mxCell id="pXWbJLQjwO5KQmK5qRDa-18" style="edgeStyle=orthogonalEdgeStyle;curved=1;rounded=0;orthogonalLoop=1;jettySize=auto;html=1;entryX=0;entryY=0.5;entryDx=0;entryDy=0;strokeColor=#97D077;" edge="1" parent="1" source="pXWbJLQjwO5KQmK5qRDa-5" target="pXWbJLQjwO5KQmK5qRDa-7">
          <mxGeometry relative="1" as="geometry" />
        </mxCell>
        <mxCell id="pXWbJLQjwO5KQmK5qRDa-19" style="edgeStyle=orthogonalEdgeStyle;curved=1;rounded=0;orthogonalLoop=1;jettySize=auto;html=1;entryX=0;entryY=0.5;entryDx=0;entryDy=0;strokeColor=#7EA6E0;" edge="1" parent="1" source="pXWbJLQjwO5KQmK5qRDa-5" target="pXWbJLQjwO5KQmK5qRDa-6">
          <mxGeometry relative="1" as="geometry" />
        </mxCell>
        <mxCell id="pXWbJLQjwO5KQmK5qRDa-5" value="loglistener" style="rounded=1;whiteSpace=wrap;html=1;fillColor=#ffcc99;strokeColor=default;sketch=1;glass=0;" vertex="1" parent="1">
          <mxGeometry x="110" y="440" width="90" height="40" as="geometry" />
        </mxCell>
        <mxCell id="pXWbJLQjwO5KQmK5qRDa-20" style="edgeStyle=orthogonalEdgeStyle;curved=1;rounded=0;orthogonalLoop=1;jettySize=auto;html=1;entryX=0;entryY=0.5;entryDx=0;entryDy=0;strokeColor=#7EA6E0;" edge="1" parent="1" source="pXWbJLQjwO5KQmK5qRDa-6" target="pXWbJLQjwO5KQmK5qRDa-8">
          <mxGeometry relative="1" as="geometry" />
        </mxCell>
        <mxCell id="pXWbJLQjwO5KQmK5qRDa-6" value="ToolsetOne" style="rounded=1;whiteSpace=wrap;html=1;fillColor=#cce5ff;strokeColor=#36393d;sketch=1;glass=0;" vertex="1" parent="1">
          <mxGeometry x="310" y="210" width="120" height="70" as="geometry" />
        </mxCell>
        <mxCell id="pXWbJLQjwO5KQmK5qRDa-21" style="edgeStyle=orthogonalEdgeStyle;curved=1;rounded=0;orthogonalLoop=1;jettySize=auto;html=1;strokeColor=#7EA6E0;" edge="1" parent="1" source="pXWbJLQjwO5KQmK5qRDa-7" target="pXWbJLQjwO5KQmK5qRDa-9">
          <mxGeometry relative="1" as="geometry" />
        </mxCell>
        <mxCell id="pXWbJLQjwO5KQmK5qRDa-7" value="ToolsetTwo" style="rounded=1;whiteSpace=wrap;html=1;fillColor=#cdeb8b;strokeColor=#36393d;sketch=1;glass=0;" vertex="1" parent="1">
          <mxGeometry x="310" y="330" width="120" height="70" as="geometry" />
        </mxCell>
        <mxCell id="pXWbJLQjwO5KQmK5qRDa-23" style="edgeStyle=orthogonalEdgeStyle;curved=1;rounded=0;orthogonalLoop=1;jettySize=auto;html=1;strokeColor=#7EA6E0;" edge="1" parent="1" source="pXWbJLQjwO5KQmK5qRDa-8" target="pXWbJLQjwO5KQmK5qRDa-22">
          <mxGeometry relative="1" as="geometry" />
        </mxCell>
        <mxCell id="pXWbJLQjwO5KQmK5qRDa-8" value="多个资源x版本打包到同一个压缩包" style="rounded=1;whiteSpace=wrap;html=1;fillColor=#cce5ff;strokeColor=#36393d;sketch=1;glass=0;" vertex="1" parent="1">
          <mxGeometry x="510" y="210" width="120" height="70" as="geometry" />
        </mxCell>
        <mxCell id="pXWbJLQjwO5KQmK5qRDa-26" style="edgeStyle=orthogonalEdgeStyle;curved=1;rounded=0;orthogonalLoop=1;jettySize=auto;html=1;entryX=0;entryY=0.5;entryDx=0;entryDy=0;strokeColor=#7EA6E0;" edge="1" parent="1" source="pXWbJLQjwO5KQmK5qRDa-9" target="pXWbJLQjwO5KQmK5qRDa-25">
          <mxGeometry relative="1" as="geometry" />
        </mxCell>
        <mxCell id="pXWbJLQjwO5KQmK5qRDa-9" value="多个资源x版本打包到同一个压缩包" style="rounded=1;whiteSpace=wrap;html=1;fillColor=#cdeb8b;strokeColor=#36393d;sketch=1;glass=0;" vertex="1" parent="1">
          <mxGeometry x="510" y="330" width="120" height="70" as="geometry" />
        </mxCell>
        <mxCell id="pXWbJLQjwO5KQmK5qRDa-22" value="母机安装" style="rounded=1;whiteSpace=wrap;html=1;fillColor=#cce5ff;strokeColor=#36393d;sketch=1;glass=0;" vertex="1" parent="1">
          <mxGeometry x="690" y="210" width="120" height="70" as="geometry" />
        </mxCell>
        <mxCell id="pXWbJLQjwO5KQmK5qRDa-25" value="母机安装" style="rounded=1;whiteSpace=wrap;html=1;fillColor=#cdeb8b;strokeColor=#36393d;sketch=1;glass=0;" vertex="1" parent="1">
          <mxGeometry x="690" y="330" width="120" height="70" as="geometry" />
        </mxCell>
      </root>
    </mxGraphModel>
  </diagram>
</mxfile>
